<svg xmlns="http://www.w3.org/2000/svg" width="95.955" height="72.337" viewBox="0 0 95.955 72.337"><defs><style>.a{fill:#f24c27;}.b{fill:#89bce2;}</style></defs><g transform="translate(-146.705 -598)"><path class="a" d="M242.66,647.954H227.436a44.221,44.221,0,0,0-80.731-19.5,49.956,49.956,0,0,1,95.955,19.5Z" transform="translate(0 0)"/><g transform="translate(186.857 608.972)"><path class="b" d="M205.148,665.49a5.852,5.852,0,0,0,9.156,7.29c.28-.353.731-1.1.731-1.1l.787-1.464,30.39-56.6Zm6.627,4.648a2.643,2.643,0,1,1-1.178-2.749A2.67,2.67,0,0,1,211.775,670.138Z" transform="translate(-203.874 -613.622)"/></g></g></svg>