<svg xmlns="http://www.w3.org/2000/svg" width="74.284" height="102.776" viewBox="0 0 74.284 102.776"><defs><style>.a{fill:#8cc63e;}.b{fill:#6d9a30;}.c{fill:#fff;}.d{fill:#89bce2;}</style></defs><g transform="translate(-858.28 -590.852)"><g transform="translate(858.28 590.852)"><path class="a" d="M932.565,706.041l-14.73-3.408-6.576,13.613-14.567-30.407-1.269-2.651-1.269,2.651-14.567,30.407-6.576-13.613-14.728,3.408,14.077-29.387,3.114-6.5,1.477-3.083,18.472,8.848,18.474-8.848,1.477,3.083,3.114,6.5Z" transform="translate(-858.281 -613.471)"/><g transform="translate(0 53.598)"><path class="b" d="M879.586,716.246l-6.576-13.614-14.73,3.408,18.668-38.972,21.306,10.206Z" transform="translate(-858.28 -667.068)"/><path class="b" d="M925.737,716.246l6.576-13.614,14.73,3.408-18.669-38.972-21.306,10.206Z" transform="translate(-872.759 -667.068)"/></g><g transform="translate(1.936)"><circle class="c" cx="28.376" cy="28.376" r="28.376" transform="translate(6.83 6.83)"/><circle class="d" cx="25.253" cy="25.253" r="25.253" transform="translate(9.954 9.953)"/><path class="a" d="M927.291,632.236c.419-2.108,4.154-3.945,4.154-6.178s-3.735-4.069-4.154-6.18c-.43-2.174,2.311-5.3,1.481-7.3-.4-.977-1.568-1.546-2.805-2.072-1.345-.573-2.771-1.1-3.4-2.039-1.22-1.823.115-5.763-1.431-7.309a4.151,4.151,0,0,0-2.845-.823c-1.609-.052-3.4.107-4.463-.606a4.676,4.676,0,0,1-1.426-1.982c-.762-1.648-1.333-3.668-2.684-4.229-2-.829-5.122,1.911-7.3,1.481-2.111-.417-3.948-4.152-6.181-4.152s-4.069,3.735-6.18,4.152a2.612,2.612,0,0,1-.74.035c-2.1-.159-4.773-2.257-6.556-1.516-2.034.845-2.3,5-4.11,6.211s-5.761-.115-7.307,1.429-.211,5.485-1.431,7.309-5.366,2.074-6.208,4.109c-.738,1.785,1.357,4.458,1.515,6.555a2.62,2.62,0,0,1-.034.743c-.419,2.111-4.154,3.948-4.154,6.18s3.735,4.07,4.154,6.178c.43,2.174-2.311,5.3-1.481,7.3.56,1.35,2.579,1.923,4.228,2.681a4.717,4.717,0,0,1,1.98,1.429c.712,1.064.553,2.851.606,4.463a4.17,4.17,0,0,0,.825,2.845c1.544,1.546,5.483.21,7.307,1.431.942.629,1.466,2.058,2.039,3.4.528,1.236,1.1,2.4,2.072,2.806,2,.829,5.122-1.911,7.3-1.481,2.111.417,3.948,4.154,6.18,4.154s4.07-3.737,6.181-4.154c2.174-.43,5.3,2.31,7.3,1.481,2.034-.845,2.3-5,4.11-6.208s5.761.115,7.307-1.431.211-5.485,1.431-7.307,5.366-2.076,6.208-4.11C929.6,637.535,926.862,634.41,927.291,632.236Zm-31.053,21.483a27.477,27.477,0,0,1-11.137-2.343,27.808,27.808,0,0,1-13.527-12.8,27.629,27.629,0,0,1,.947-26.74,27.869,27.869,0,0,1,9.494-9.494,27.617,27.617,0,0,1,26.74-.947,27.811,27.811,0,0,1,12.8,13.526,27.658,27.658,0,0,1-25.318,38.8Z" transform="translate(-861.033 -590.852)"/></g></g><g transform="translate(878.702 613.267)"><g transform="translate(0 0)"><path class="c" d="M896,647.276l-7.7-7.7a3.34,3.34,0,0,1,0-4.723l.048-.047a3.339,3.339,0,0,1,4.723,0l4.787,4.787a.9.9,0,0,0,1.267,0L915.012,623.7a3.339,3.339,0,0,1,4.723,0l.048.047a3.34,3.34,0,0,1,0,4.723l-18.8,18.8A3.523,3.523,0,0,1,896,647.276Z" transform="translate(-887.321 -622.726)"/></g></g></g></svg>