<svg xmlns="http://www.w3.org/2000/svg" width="108.395" height="80.187" viewBox="0 0 108.395 80.187"><defs><style>.a{fill:#f24c27;}.b{fill:#fff;}.c{fill:#89bce2;}.d{fill:#353f52;}.e{fill:#fec9a3;}.f{fill:#feb784;}</style></defs><g transform="translate(-344.927 -598)"><path class="a" d="M415.507,629.583l0,.047a7.929,7.929,0,0,0,4.525,7.564l.03.014a5.335,5.335,0,0,1,2.414,2.322l.012.022a8.285,8.285,0,0,0,7.787,4.345l.049,0a5.671,5.671,0,0,1,3.352.872,8.5,8.5,0,0,0,9.013,0,5.669,5.669,0,0,1,3.352-.872l.05,0a8.289,8.289,0,0,0,7.788-4.35l.008-.015a5.339,5.339,0,0,1,2.422-2.327l.024-.012a7.929,7.929,0,0,0,4.525-7.565l0-.044a5.074,5.074,0,0,1,.883-3.144,7.8,7.8,0,0,0,0-8.822,5.074,5.074,0,0,1-.883-3.143l0-.046a7.928,7.928,0,0,0-4.528-7.565l-.026-.014a5.323,5.323,0,0,1-2.411-2.314l-.015-.03a8.291,8.291,0,0,0-7.785-4.345l-.05,0a5.665,5.665,0,0,1-3.35-.872h0a8.5,8.5,0,0,0-9.013,0,5.676,5.676,0,0,1-3.352.871l-.049,0a8.284,8.284,0,0,0-7.785,4.344l-.011.021a5.34,5.34,0,0,1-2.417,2.326l-.028.013a7.927,7.927,0,0,0-4.525,7.565l0,.044a5.067,5.067,0,0,1-.883,3.143,7.8,7.8,0,0,0,0,8.823A5.066,5.066,0,0,1,415.507,629.583Z" transform="translate(-25.331)"/><path class="b" d="M438.459,641.868a1.367,1.367,0,0,0,1.883-.436l16.2-25.956a1.368,1.368,0,1,0-2.321-1.449l-16.2,25.956A1.367,1.367,0,0,0,438.459,641.868Z" transform="translate(-34.435 -5.699)"/><path class="b" d="M437.587,628.178c3.33,0,6.04-3.09,6.04-6.888s-2.71-6.888-6.04-6.888-6.04,3.09-6.04,6.888S434.256,628.178,437.587,628.178Zm0-11.04c1.822,0,3.305,1.863,3.305,4.152s-1.483,4.153-3.305,4.153-3.3-1.864-3.3-4.153S435.765,617.137,437.587,617.137Z" transform="translate(-32.111 -6.08)"/><path class="b" d="M454.979,642.969c0,3.8,2.71,6.888,6.04,6.888s6.041-3.09,6.041-6.888-2.71-6.887-6.04-6.887S454.979,639.17,454.979,642.969Zm9.345,0c0,2.289-1.483,4.152-3.3,4.152s-3.3-1.863-3.3-4.152,1.483-4.152,3.3-4.152S464.324,640.679,464.324,642.969Z" transform="translate(-40.798 -14.118)"/><g transform="translate(344.927 642.679)"><path class="c" d="M361.746,705.609h-16.82V671.97h16.82Z" transform="translate(-344.927 -670.101)"/><path class="d" d="M353.837,707.441a2.8,2.8,0,1,0,2.8-2.8A2.8,2.8,0,0,0,353.837,707.441Z" transform="translate(-348.23 -682.212)"/><path class="e" d="M373.48,675.015q.658-.526,1.343-1.009a27.454,27.454,0,0,1,29.264-1.481l3.7,2.082h16.2a7.475,7.475,0,1,1,0,14.951h7.475l21-10.433a6.9,6.9,0,0,1,3.016-.722l.8-.005a6.9,6.9,0,0,1,3.138,13.066l-22.933,11.466a14.919,14.919,0,0,1-6.686,1.579H371.655V676.475Z" transform="translate(-354.835 -669)"/><path class="f" d="M425.112,700.567a1.869,1.869,0,0,1,1.868-1.869H443.8a1.869,1.869,0,0,1,0,3.738H426.98A1.869,1.869,0,0,1,425.112,700.567Z" transform="translate(-374.653 -680.009)"/></g></g></svg>