<svg xmlns="http://www.w3.org/2000/svg" width="103.277" height="103.301" viewBox="0 0 103.277 103.301"><defs><style>.a{fill:#89bce2;}.b{fill:#f24c27;}.c{fill:#8cc63f;}</style></defs><g transform="translate(-606.969 -580.186)"><g transform="translate(606.969 580.186)"><path class="a" d="M629.948,589.5a21.359,21.359,0,0,1,2.721,1.049c1.581.873,3.094,1.869,4.643,2.8a9.558,9.558,0,0,0,1.483.785c3.641,1.388,10.637-1.769,11.974-5.4.646-1.754,1.259-3.521,1.876-5.286a4.334,4.334,0,0,1,4.481-3.258q4.106.108,8.206.424a4.376,4.376,0,0,1,4.188,3.642c.385,1.574.755,3.152,1.147,4.724a14.469,14.469,0,0,0,.567,1.973c1.492,3.665,8.752,6.518,12.339,4.857,1.7-.785,3.369-1.623,5.065-2.409a4.347,4.347,0,0,1,5.342.792c1.993,2.053,3.918,4.179,5.777,6.355a4.212,4.212,0,0,1,.3,5.222c-1.133,1.937-2.323,3.84-3.48,5.763a3.752,3.752,0,0,0-.252,4.209,8.572,8.572,0,0,1,1.012,2.606,7.73,7.73,0,0,0,6.3,6.36,33.674,33.674,0,0,1,3.536,1.211,4.279,4.279,0,0,1,3.07,4.244,91.073,91.073,0,0,1-.512,9.122,3.932,3.932,0,0,1-3.128,3.361c-1.559.439-3.146.779-4.719,1.166-.605.149-1.223.266-1.808.473-3.643,1.288-6.97,9.046-5.379,12.567.769,1.7,1.64,3.361,2.413,5.064a4.423,4.423,0,0,1-.9,5.485q-3,2.811-6.122,5.482a4.4,4.4,0,0,1-5.545.323c-1.334-.806-2.66-1.625-3.992-2.434a14.5,14.5,0,0,0-1.294-.75c-3.538-1.67-11.44,1.523-12.816,5.189-.635,1.692-1.209,3.407-1.822,5.107a4.272,4.272,0,0,1-4.35,3.169q-4.2-.089-8.393-.379a4.318,4.318,0,0,1-4.122-3.7q-.543-2.273-1.1-4.542a14.409,14.409,0,0,0-.393-1.442c-1.324-3.688-9.148-7.029-12.708-5.415-1.7.772-3.368,1.626-5.069,2.4a4.315,4.315,0,0,1-5.317-.9c-1.925-2.034-3.8-4.119-5.6-6.266a4.345,4.345,0,0,1-.3-5.392q1.627-2.731,3.3-5.434a4.054,4.054,0,0,0,.314-4.37,39.822,39.822,0,0,1-1.87-5.081,4.912,4.912,0,0,0-3.686-3.332,40.792,40.792,0,0,1-5.637-1.977,4.125,4.125,0,0,1-2.707-4.281c.145-2.612.269-5.227.489-7.832a4.709,4.709,0,0,1,4.047-4.67c1.694-.418,3.387-.843,5.087-1.236a5.948,5.948,0,0,0,4.172-3.436c.027-.056.048-.115.074-.172,3.048-6.616,3.5-5.532-.055-12.812-1.872-3.838-1.707-4.968,1.3-7.919a61.5,61.5,0,0,1,5.055-4.433A14.44,14.44,0,0,1,629.948,589.5Zm29.713,6.853a35.649,35.649,0,0,0-36.525,34.486c-.788,19,14.569,35.691,34.071,36.48a35.544,35.544,0,0,0,36.914-34.023C694.992,613.752,679.818,597.4,659.66,596.348Z" transform="translate(-606.969 -580.186)"/><path class="b" d="M716.636,655.294c0,4.738-.052,9.477.029,14.213.028,1.6-.462,2.214-2.109,2.162-3.131-.1-6.269-.065-9.4-.018-1.277.019-1.82-.407-1.815-1.759q.054-14.752-.008-29.5c-.008-1.511.645-1.836,1.976-1.81,3.133.062,6.271.092,9.4-.008,1.6-.051,1.966.629,1.949,2.071C716.6,645.525,716.636,650.41,716.636,655.294Z" transform="translate(-639.955 -600.171)"/><path class="b" d="M675.949,666.3c0-3.127-.072-6.258.069-9.379a2.141,2.141,0,0,1,1.463-1.49c3.413-.138,6.834-.049,10.251-.09,1.143-.013,1.531.478,1.527,1.569-.025,6.255-.043,12.51,0,18.764.011,1.386-.607,1.737-1.847,1.72-3.2-.043-6.406-.064-9.608.005-1.446.032-1.9-.56-1.869-1.938.064-3.052.02-6.108.02-9.162Z" transform="translate(-630.576 -605.911)"/><path class="c" d="M672.515,625.318l-1.619-3.005,14.073-.955L678.893,633.7c-.288-.056-.508-.041-.544-.115-1.086-2.249-2.554-1.963-4.547-1.064-7.237,3.263-14.558,6.34-21.851,9.48a4,4,0,0,1-2.147.4Z" transform="translate(-621.632 -594.28)"/><path class="b" d="M660.577,681.62c-3.861,0-7.782.043-11.7-.059a1.831,1.831,0,0,1-1.229-1.3q-.16-5.569-.013-11.143a1.819,1.819,0,0,1,1.253-1.26c3.413-.111,6.831-.107,10.245-.028.488.011,1.373.612,1.381.956C660.611,672.98,660.577,677.174,660.577,681.62Z" transform="translate(-620.866 -610.17)"/></g></g></svg>