<svg xmlns="http://www.w3.org/2000/svg" width="95" height="101.36" viewBox="0 0 95 101.36"><defs><style>.a{fill:#ffdab9;}.b{fill:#ffe4c3;}.c{fill:#785000;}.d{fill:#ebebeb;}.e{fill:#f5f5f5;}.f{fill:#f24c27;}.g{fill:#fff;}.h{fill:#ffc800;}.i{fill:#c8c8c8;}.j{fill:#3a83b9;}</style></defs><g transform="translate(-591 -285.54)"><g transform="translate(591 285.54)"><path class="a" d="M658.962,310.395a56.162,56.162,0,0,1-.342,6.144c-1.573,13.517-8.373,23.571-18.81,23.571-10.48,0-17.294-10.136-18.825-23.734a53.272,53.272,0,0,1-.328-5.981,19.152,19.152,0,0,1,38.3,0Z" transform="translate(-597.208 -286.734)"/><path class="b" d="M663.691,316.539a56.162,56.162,0,0,0,.342-6.144,19.147,19.147,0,0,0-19.152-19.151V340.11C655.318,340.11,662.118,330.056,663.691,316.539Z" transform="translate(-602.279 -286.734)"/><path class="c" d="M656.323,323.193c0,1.489-1.93,7.891-6.223,12.448,0,0-5.918-5.223-10.189-5.223s-10.193,5.225-10.193,5.225c-4.293-4.557-6.229-10.96-6.229-12.449l-2.407-.163c1.531,13.6,8.345,23.734,18.824,23.734,10.437,0,17.237-10.054,18.81-23.571Z" transform="translate(-597.297 -293.388)"/><g transform="translate(20.248 24.238)"><path class="a" d="M619.856,317.339l-.048-.331c-2.166-2.138-3.876.258-2.936,3.506s1.2,3.847,2.137,6.754,2.444,1.247,2.444,1.247l-.026-.179A47.544,47.544,0,0,1,619.856,317.339Z" transform="translate(-616.608 -316.195)"/><path class="a" d="M668.623,317.339l.048-.331c2.166-2.138,3.875.258,2.936,3.506s-1.2,3.847-2.138,6.754-2.443,1.247-2.443,1.247l.026-.179A47.676,47.676,0,0,0,668.623,317.339Z" transform="translate(-627.162 -316.195)"/></g><path class="c" d="M639.18,285.54c-13.965,0-23.627,7.95-21.147,24.24l.03.069a1.984,1.984,0,0,1,1.965.742l.047.331c.046,1.513.174,2.982.342,4.424h2.347a46.109,46.109,0,0,1,.321-7.81c11.951,1.917,22.841-5.706,25.32-10.9h0c7.929,4.036,7.191,18.707,7.191,18.707h2.353c.168-1.442.293-2.911.342-4.424l.047-.331a1.985,1.985,0,0,1,1.959-.742l.03-.069C662.807,293.49,653.145,285.54,639.18,285.54Z" transform="translate(-596.577 -285.54)"/><path class="a" d="M642.1,351.921a15.023,15.023,0,0,1-10.488-4.251v24.493h20.977V347.67A15.028,15.028,0,0,1,642.1,351.921Z" transform="translate(-599.502 -298.545)"/><path class="d" d="M648.668,361.525a40.87,40.87,0,0,0,8.316,3.27,21.148,21.148,0,0,0,2.722.519c1.135.137,2.34.233,3.544.4,4.336.576,8.7,1.9,9.972,7.977,1.615,7.784,2.983,29.082,2.983,29.082H591s1.367-21.3,2.982-29.082c1.272-6.076,5.636-7.4,9.972-7.977,1.2-.163,2.408-.259,3.544-.4a21.177,21.177,0,0,0,2.722-.519,40.89,40.89,0,0,0,8.316-3.27l9.65,8.92,5.415,3.25,5.415-3.25Z" transform="translate(-591 -301.446)"/><path class="b" d="M648.863,340.9c0,1.134-2.425,2.051-5.415,2.051s-5.415-.917-5.415-2.051,2.424-2.052,5.415-2.052S648.863,339.768,648.863,340.9Z" transform="translate(-600.845 -296.699)"/><path class="e" d="M629.411,351.935l-2.7,1.282-5.624,18.9,13.4-3.676-5.073-11.886Z" transform="translate(-597.297 -299.438)"/><path class="f" d="M666.68,410.224,660.4,397.137H613.663l-6.279,13.087Z" transform="translate(-594.43 -308.9)"/><path class="f" d="M615.182,397.1a3.166,3.166,0,0,1-3.6-2.652l-4.2-27.868c1.2-.163,2.408-.259,3.544-.4a21.179,21.179,0,0,0,2.722-.519l4.2,27.84A3.163,3.163,0,0,1,615.182,397.1Z" transform="translate(-594.43 -302.311)"/><path class="e" d="M656.8,351.935l2.7,1.282,5.624,18.9-13.4-3.676,5.073-11.886Z" transform="translate(-603.712 -299.438)"/><path class="g" d="M617.485,399.831a1.368,1.368,0,1,1-1.557-1.149A1.366,1.366,0,0,1,617.485,399.831Z" transform="translate(-595.974 -309.22)"/><path class="h" d="M671.8,397.1a3.166,3.166,0,0,0,3.6-2.652l4.2-27.868c-1.2-.163-2.408-.259-3.544-.4a21.148,21.148,0,0,1-2.722-.519l-4.2,27.84A3.163,3.163,0,0,0,671.8,397.1Z" transform="translate(-607.348 -302.311)"/><path class="g" d="M671.553,399.831a1.368,1.368,0,1,0,1.557-1.149A1.366,1.366,0,0,0,671.553,399.831Z" transform="translate(-607.859 -309.22)"/><rect class="i" width="1.368" height="15.989" transform="translate(41.918 72.248)"/><path class="i" d="M641.636,382.069a1.368,1.368,0,1,1-1.368-1.368A1.367,1.367,0,0,1,641.636,382.069Z" transform="translate(-601.027 -305.46)"/><path class="i" d="M641.636,391.368A1.368,1.368,0,1,1,640.268,390,1.367,1.367,0,0,1,641.636,391.368Z" transform="translate(-601.027 -307.406)"/></g><path class="j" d="M677.594,347.978l-22.016,20.731h2.2V399.97h39.535V368.709h2.2Z" transform="translate(-13.518 -13.07)"/><path class="j" d="M703.145,399.97V368.709h2.2l-21.924-20.731V399.97Z" transform="translate(-19.347 -13.07)"/><path class="g" d="M698.522,404.018a2.692,2.692,0,1,1-5.384,0c0-1.489,2.692-6.128,2.692-6.128S698.522,402.529,698.522,404.018Z" transform="translate(-21.38 -23.518)"/><rect class="g" width="8.806" height="2.934" transform="translate(670.047 369.316)"/><rect class="g" width="8.073" height="3.394" transform="translate(659.994 357.196)"/><rect class="g" width="2.568" height="5.692" transform="translate(662.747 352.515)"/><path class="g" d="M684.293,369.913a1.262,1.262,0,1,1-1.261-1.26A1.262,1.262,0,0,1,684.293,369.913Z" transform="translate(-19 -17.398)"/><path class="g" d="M689.6,371.447l-6.237-1.1v-1.057l6.237-1.1Z" transform="translate(-19.335 -17.301)"/><path class="g" d="M675.476,371.447l6.238-1.1v-1.057l-6.238-1.1Z" transform="translate(-17.683 -17.301)"/><path class="g" d="M673.929,406.485h-5.472V388.678a9.588,9.588,0,0,1,9.576-9.577h5.79a9.588,9.588,0,0,1,9.576,9.577v1.583h-5.471v-1.583a4.108,4.108,0,0,0-4.1-4.1h-5.79a4.108,4.108,0,0,0-4.1,4.1Z" transform="translate(-16.214 -19.585)"/></g></svg>