<svg xmlns="http://www.w3.org/2000/svg" width="74.984" height="103.232" viewBox="0 0 74.984 103.232"><defs><style>.a{fill:#787878;}.b{fill:#b4b4b4;}.c{fill:#dcdcdc;}.d{fill:#c8c8c8;}.e{fill:#646464;}.f{fill:#d2d2d2;}.g{fill:#e1e1e1;}.h{fill:#f24c27;}</style></defs><g transform="translate(-1065.763 -221)"><g transform="translate(1065.763 224.653)"><rect class="a" width="10.712" height="64.459" transform="matrix(0.868, -0.497, 0.497, 0.868, 15.222, 26.103)"/><path class="a" d="M1114.166,299.673,1118.83,297l-32.056-55.921-4.76,2.727-.079.046Z" transform="translate(-1062.258 -220.301)"/><path class="a" d="M1091.881,230.217a13.983,13.983,0,1,1-19.858-4.7l2.384,13.95c.64,3.753,12.975,1.643,12.337-2.111L1084.46,224A13.979,13.979,0,0,1,1091.881,230.217Z" transform="translate(-1065.763 -224.002)"/><path class="a" d="M1107.676,286.5a10.526,10.526,0,0,1,11.053,17.9l-1.8-10.5c-.483-2.825-9.767-1.234-9.288,1.582l1.723,10.053a10.525,10.525,0,0,1-1.69-19.041Z" transform="translate(-1057.824 -210.757)"/></g><g transform="translate(1067.417 221)"><path class="b" d="M1115.943,233.607l11.76,6.79s-2.548,5.406-8.255,6.225-8.453-4.446-8.453-4.446Z" transform="translate(-1057.612 -218.268)"/><rect class="c" width="1.754" height="13.597" transform="translate(57.453 16.858) rotate(-60.004)"/><path class="d" d="M1132.132,238.007l-11.712-6.763-7.888,13.666-4.33-1.667-4.3-1.652s5.109-8.848,9.361-16.215c2.021-3.5,4.848-4.786,7.714-4.256,3.179.567,6.379,3.351,8.624,7.753C1133.861,237.27,1132.132,238.007,1132.132,238.007Z" transform="translate(-1059.15 -220.999)"/><path class="d" d="M1103.893,241.59l9.365-16.22c4.26-7.375,12.075-4.887,16.34,3.5s2.537,9.131,2.537,9.131l-11.711-6.763-7.891,13.667Z" transform="translate(-1059.152 -221)"/><path class="d" d="M1120.973,221.119,1108.2,243.243l-4.3-1.652s5.109-8.848,9.361-16.215C1115.28,221.874,1118.106,220.59,1120.973,221.119Z" transform="translate(-1059.15 -220.999)"/><rect class="e" width="15.402" height="6.888" transform="matrix(0.5, -0.866, 0.866, 0.5, 39.243, 42.638)"/><path class="d" d="M1113.3,240.668l-4.553-2.629-41.264,71.469c-.011.018.013-.018,0,0a2.631,2.631,0,1,0,4.557,2.631c.009-.018-.016.016-.006,0Z" transform="translate(-1067.122 -217.307)"/><path class="d" d="M1123.328,246.458l-4.554-2.629L1077.51,315.3c-.01.018.01-.019,0,0a2.63,2.63,0,1,0,4.554,2.629c.01-.018-.016.016,0,0Z" transform="translate(-1064.949 -216.052)"/><path class="f" d="M1081.834,317.694c.01-.018-.016.016,0,0l41.268-71.466-2.277-1.315-42.609,73.8A2.681,2.681,0,0,0,1081.834,317.694Z" transform="translate(-1064.718 -215.818)"/><rect class="g" width="1.752" height="13.597" transform="matrix(0.5, -0.866, 0.866, 0.5, 60.614, 11.38)"/><path class="f" d="M1071.809,311.9c.009-.018-.016.016-.006,0l41.267-71.467-2.278-1.314-42.608,73.8A2.687,2.687,0,0,0,1071.809,311.9Z" transform="translate(-1066.892 -217.072)"/><path class="h" d="M1105.007,238.159l14.7-.674,7.917,4.571c-3.781,6.547-8.417,11.823-16.549,7.128l-14.34,24.834c-4.12-2.379-7.809,2.505-7.809,2.505l-4.554-2.631Z" transform="translate(-1063.383 -217.427)"/><path class="d" d="M1113.892,244.131a1.951,1.951,0,1,1-.715-2.665A1.954,1.954,0,0,1,1113.892,244.131Z" transform="translate(-1057.773 -216.621)"/></g></g></svg>