<svg xmlns="http://www.w3.org/2000/svg" xmlns:xlink="http://www.w3.org/1999/xlink" width="30.113" height="42.451" viewBox="0 0 30.113 42.451"><defs><style>.a{fill:url(#a);}.b{fill:url(#b);}.c{fill:url(#c);}.d{fill:url(#d);}</style><linearGradient id="a" x1="0.714" y1="0.422" x2="0.015" y2="0.702" gradientUnits="objectBoundingBox"><stop offset="0" stop-color="#22bee7"/><stop offset="1" stop-color="#1b6db5"/></linearGradient><linearGradient id="b" x1="0.522" y1="1.07" x2="0.468" y2="-0.053" xlink:href="#a"/><linearGradient id="c" x1="-0.56" y1="0.5" x2="1.313" y2="0.5" gradientUnits="objectBoundingBox"><stop offset="0" stop-color="#048ac4"/><stop offset="1" stop-color="#3559ba"/></linearGradient><linearGradient id="d" x1="1.236" y1="0.539" x2="-0.024" y2="0.484" gradientUnits="objectBoundingBox"><stop offset="0" stop-color="#048ac4"/><stop offset="1" stop-color="#35489b"/></linearGradient></defs><g transform="translate(-764.662 -513.68)"><path class="a" d="M791.324,531.327q-.261-.39-.531-.731c-4.927-6.268-11.075,0-11.075,0l-6.242,5.281v9.8H783.9c-1.023,5.035-7.375,10.324-15.329,5.517a15.046,15.046,0,0,1-1.511-18.262c.144-.222,12.66-19.25,12.66-19.25S788.371,526.833,791.324,531.327Z" transform="translate(0 0)"/><path class="b" d="M851.946,773.219a15.055,15.055,0,0,1-26.205,10.118c8.694,6.955,17.391-.6,17.391-5.517v-9.8l-4.823-4.08a8.2,8.2,0,0,1,9.655-1.2c.18.226.357.47.531.731a.223.223,0,0,1,.03.046l.947,1.437A14.965,14.965,0,0,1,851.946,773.219Z" transform="translate(-57.171 -232.145)"/><path class="c" d="M843.132,1013.769c0,4.915-8.7,12.472-17.391,5.517,7.954,4.806,14.306-.482,15.329-5.517Z" transform="translate(-57.171 -468.094)"/><path class="d" d="M1011.075,737.33a8.2,8.2,0,0,0-9.655,1.2l-1.419-1.2S1006.148,731.062,1011.075,737.33Z" transform="translate(-220.281 -206.733)"/></g></svg>