<?xml version="1.0" encoding="utf-8"?>
<!-- Generator: Adobe Illustrator 16.0.0, SVG Export Plug-In . SVG Version: 6.00 Build 0)  -->
<!DOCTYPE svg PUBLIC "-//W3C//DTD SVG 1.1//EN" "http://www.w3.org/Graphics/SVG/1.1/DTD/svg11.dtd">
<svg version="1.1" id="Capa_1" xmlns="http://www.w3.org/2000/svg" xmlns:xlink="http://www.w3.org/1999/xlink" x="0px" y="0px"
	 width="1000px" height="1000px" viewBox="0 0 1000 1000" enable-background="new 0 0 1000 1000" xml:space="preserve">
<g>
	<g>
		<path d="M979.166,187.5H20.834C9.334,187.5,0,196.834,0,208.334s9.334,20.834,20.834,20.834h958.334
			c11.5,0,20.834-9.334,20.834-20.834S990.666,187.5,979.166,187.5z"/>
	</g>
</g>
<g>
	<g>
		<path d="M984.356,479.166H264.747c-8.635,0-15.644,9.334-15.644,20.834s7.009,20.834,15.644,20.834h719.61
			c8.636,0,15.645-9.334,15.645-20.834S992.991,479.166,984.356,479.166z"/>
	</g>
</g>
<g>
	<g>
		<path d="M979.166,770.834H20.834C9.334,770.834,0,780.166,0,791.666S9.334,812.5,20.834,812.5h958.334
			c11.5,0,20.834-9.334,20.834-20.834C1000,780.166,990.666,770.834,979.166,770.834z"/>
	</g>
</g>
</svg>
