<?xml version="1.0" encoding="utf-8"?>
<!-- Generator: Adobe Illustrator 16.0.0, SVG Export Plug-In . SVG Version: 6.00 Build 0)  -->
<!DOCTYPE svg PUBLIC "-//W3C//DTD SVG 1.1//EN" "http://www.w3.org/Graphics/SVG/1.1/DTD/svg11.dtd">
<svg version="1.1" xmlns="http://www.w3.org/2000/svg" xmlns:xlink="http://www.w3.org/1999/xlink" x="0px" y="0px" width="360px"
	 height="68.667px" viewBox="306 248.667 360 68.667" enable-background="new 306 248.667 360 68.667" xml:space="preserve">
<g id="Layer_1">
</g>
<g id="Layer_1_copy">
</g>
<g id="Layer_1_copy_3">
</g>
<g id="Layer_1_copy_2">
</g>
<g id="Layer_1_copy_4">
	<g>
		<path fill="#FFC107" d="M365.895,276.582c-0.358-1.109-1.344-1.898-2.509-2.004l-15.826-1.438l-6.258-14.646
			c-0.462-1.074-1.513-1.769-2.681-1.769c-1.167,0-2.218,0.694-2.681,1.771l-6.258,14.645l-15.828,1.438
			c-1.164,0.107-2.146,0.895-2.507,2.004c-0.36,1.111-0.028,2.328,0.853,3.096l11.963,10.492l-3.527,15.539
			c-0.259,1.143,0.186,2.324,1.133,3.008c0.51,0.369,1.105,0.557,1.707,0.557c0.518,0,1.032-0.141,1.494-0.416l13.651-8.16
			l13.646,8.16c0.999,0.6,2.258,0.545,3.204-0.141c0.948-0.686,1.392-1.869,1.133-3.008l-3.527-15.539l11.963-10.49
			C365.92,278.91,366.256,277.695,365.895,276.582z"/>
		<path fill="#FFC107" d="M439.584,276.582c-0.358-1.109-1.344-1.898-2.509-2.004l-15.826-1.438l-6.259-14.646
			c-0.461-1.074-1.512-1.769-2.68-1.769s-2.219,0.694-2.68,1.771l-6.259,14.645l-15.829,1.438c-1.163,0.107-2.146,0.895-2.506,2.004
			c-0.361,1.111-0.028,2.328,0.852,3.096l11.963,10.492l-3.527,15.539c-0.258,1.143,0.186,2.324,1.134,3.008
			c0.509,0.369,1.105,0.557,1.707,0.557c0.519,0,1.032-0.141,1.494-0.416l13.651-8.16l13.646,8.16
			c0.999,0.6,2.258,0.545,3.203-0.141c0.949-0.686,1.393-1.869,1.134-3.008l-3.527-15.539l11.963-10.49
			C439.609,278.91,439.945,277.695,439.584,276.582z"/>
		<path fill="#FFC107" d="M513.273,276.582c-0.358-1.109-1.344-1.898-2.509-2.004l-15.826-1.438l-6.259-14.646
			c-0.462-1.074-1.512-1.769-2.68-1.769s-2.219,0.694-2.681,1.771l-6.258,14.645l-15.828,1.438
			c-1.164,0.107-2.146,0.895-2.507,2.004c-0.361,1.111-0.027,2.328,0.852,3.096l11.963,10.492l-3.527,15.539
			c-0.258,1.143,0.186,2.324,1.134,3.008c0.509,0.369,1.105,0.557,1.707,0.557c0.518,0,1.032-0.141,1.493-0.416l13.652-8.16
			l13.646,8.16c0.999,0.6,2.258,0.545,3.203-0.141c0.949-0.686,1.392-1.869,1.134-3.008l-3.528-15.539l11.964-10.49
			C513.299,278.91,513.634,277.695,513.273,276.582z"/>
		<path fill="#FFC107" d="M586.963,276.582c-0.358-1.109-1.344-1.898-2.509-2.004l-15.827-1.438l-6.258-14.646
			c-0.462-1.074-1.513-1.769-2.68-1.769c-1.168,0-2.219,0.694-2.681,1.771l-6.258,14.645l-15.829,1.438
			c-1.163,0.107-2.146,0.895-2.506,2.004c-0.361,1.111-0.028,2.328,0.852,3.096l11.963,10.492l-3.527,15.539
			c-0.258,1.143,0.185,2.324,1.134,3.008c0.509,0.369,1.105,0.557,1.707,0.557c0.518,0,1.032-0.141,1.493-0.416l13.652-8.16
			l13.646,8.16c0.999,0.6,2.257,0.545,3.203-0.141c0.949-0.686,1.392-1.869,1.134-3.008l-3.528-15.539l11.964-10.49
			C586.988,278.91,587.323,277.695,586.963,276.582z"/>
		<path fill="#FFC107" d="M660.652,276.582c-0.359-1.109-1.344-1.898-2.509-2.004l-15.827-1.438l-6.258-14.646
			c-0.462-1.074-1.513-1.769-2.681-1.769c-1.167,0-2.218,0.694-2.68,1.771l-6.258,14.645l-15.829,1.438
			c-1.163,0.107-2.146,0.895-2.506,2.004c-0.361,1.111-0.028,2.328,0.852,3.096l11.963,10.492l-3.527,15.539
			c-0.258,1.143,0.185,2.324,1.134,3.008c0.509,0.369,1.105,0.557,1.707,0.557c0.518,0,1.031-0.141,1.493-0.416l13.651-8.16
			l13.647,8.16c0.998,0.6,2.257,0.545,3.203-0.141c0.948-0.686,1.392-1.869,1.133-3.008l-3.527-15.539l11.963-10.49
			C660.677,278.91,661.013,277.695,660.652,276.582z"/>
	</g>
</g>
</svg>
