<svg xmlns="http://www.w3.org/2000/svg" width="84" height="84" viewBox="0 0 84 84"><defs><style>.a{fill:#fff;}.b{fill:#95a5a5;}.c{fill:#f24c27;}.d{fill:#89bce2;}</style></defs><g transform="translate(-552 -5148)"><circle class="a" cx="42" cy="42" r="42" transform="translate(552 5148)"/><g transform="translate(252.926 3974.456)"><g transform="translate(317.935 1192.819)"><g transform="translate(0)"><path class="b" d="M323.815,1277.944h43.373a29.516,29.516,0,0,1-.347,3.043,14.541,14.541,0,0,1-13.988,11.445c-4.97.063-9.942.08-14.911,0a14.6,14.6,0,0,1-14.232-13.518A5.853,5.853,0,0,1,323.815,1277.944Z" transform="translate(-322.286 -1256.984)"/><path class="c" d="M341.045,1263.866q-10.2,0-20.409,0a3.857,3.857,0,0,1-1.627-.127c-.471-.236-1.047-.794-1.073-1.241a2.05,2.05,0,0,1,.9-1.388,2.632,2.632,0,0,1,1.419-.189q20.777-.011,41.553,0c.367,0,.838-.125,1.081.054.535.392,1.3.928,1.321,1.431.018.458-.753,1.085-1.313,1.382a3.792,3.792,0,0,1-1.63.082Q351.158,1263.867,341.045,1263.866Z" transform="translate(-317.935 -1244.115)"/><path class="d" d="M336.341,1218.822c2.462-.745,4.726-1.443,7-2.11a9.718,9.718,0,0,1,2.142-.464c2.107-.119,2.631.509,2.4,2.965-.626-.046-1.57.157-1.844-.182-1.1-1.359-2.108-.576-3.058-.022a49.186,49.186,0,0,0-4.93,3.192c-1.206.912-2.31,2.052-1.139,3.9h-4.849v-9.9h3.924Z" transform="translate(-328.583 -1210.44)"/><path class="b" d="M343.681,1193.339a39.855,39.855,0,0,0-5.822,3.18c-1.5,1.152-2.935,1.079-4.58,1-.516-1.337-.249-2.042,1.218-2.379,3.008-.691,5.98-1.538,8.967-2.321Z" transform="translate(-329.319 -1192.819)"/></g></g><path class="d" d="M401.594,1349.778l-3.69-5.142a.535.535,0,0,0-.868,0l-3.69,5.128-.029.044a4.273,4.273,0,0,0,.025,4.324,4.746,4.746,0,0,0,8.26-.005,4.25,4.25,0,0,0,.02-4.306Zm-1.682,1.891a4.71,4.71,0,0,1-1.347,2.424.538.538,0,0,1-.878-.2.524.524,0,0,1,.136-.566h0a3.633,3.633,0,0,0,1.042-1.867.534.534,0,0,1,1.047.212Z" transform="translate(-56.387 -114.268)"/></g></g></svg>