<svg xmlns="http://www.w3.org/2000/svg" width="84" height="84" viewBox="0 0 84 84"><defs><style>.a{fill:#fff;}.b{fill:#95a5a5;}.c{fill:#ebebeb;}.d{fill:#f24c27;}.e{fill:#89bce2;}.f{fill:#477d9e;}</style></defs><g transform="translate(-552 -4530)"><circle class="a" cx="42" cy="42" r="42" transform="translate(552 4530)"/><g transform="translate(-102.771 4239)"><path class="b" d="M675,355v31.719a3.378,3.378,0,0,0,3.368,3.368h34.807a3.378,3.378,0,0,0,3.368-3.368V355" transform="translate(0 -33.088)"/><ellipse class="a" cx="15.414" cy="15.123" rx="15.414" ry="15.123" transform="translate(680.648 323.403)"/><circle class="b" cx="10.47" cy="10.47" r="10.47" transform="translate(685.302 328.056)"/><path class="c" d="M675,321.912v-9.544A3.378,3.378,0,0,1,678.368,309h34.807a3.378,3.378,0,0,1,3.368,3.368v9.544" transform="translate(0 0)"/><path class="d" d="M783.254,334.639h1.6v1.6h-1.6Z" transform="translate(-77.867 -18.442)"/><path class="d" d="M794.649,334.639h1.6v1.6h-1.6Z" transform="translate(-86.064 -18.442)"/><path class="d" d="M806.044,334.639h1.6v1.6h-1.6Z" transform="translate(-94.26 -18.442)"/><path class="d" d="M687.195,325.193h8a.8.8,0,0,0,.8-.8v-3.2a.8.8,0,0,0-.8-.8h-8a.8.8,0,0,0-.8.8v3.2A.8.8,0,0,0,687.195,325.193Zm.8-3.2h6.4v1.6h-6.4Z" transform="translate(-8.196 -8.196)"/><path class="e" d="M718.331,371.673a11.995,11.995,0,1,0,11.995,11.995A12.008,12.008,0,0,0,718.331,371.673Z" transform="translate(-22.541 -45.081)"/><path class="f" d="M734.167,414.712s-2.526,3.789-4.555,3.509-2.463-1.965-5.616-.847-3.3,4.5-6.447,4.456a12.345,12.345,0,0,1-5.56-1.468,11.993,11.993,0,0,0,22.4-5.957" transform="translate(-26.606 -75.818)"/><path class="d" d="M783.254,323.244h1.6v1.6h-1.6Z" transform="translate(-77.867 -10.246)"/><path class="d" d="M794.649,323.244h1.6v1.6h-1.6Z" transform="translate(-86.064 -10.246)"/><path class="d" d="M806.044,323.244h1.6v1.6h-1.6Z" transform="translate(-94.26 -10.246)"/><path class="d" d="M757.964,326.792a3.2,3.2,0,1,0-3.2-3.2A3.2,3.2,0,0,0,757.964,326.792Zm0-4.8a1.6,1.6,0,1,1-1.6,1.6A1.6,1.6,0,0,1,757.964,321.994Z" transform="translate(-57.376 -8.196)"/><rect width="1.745" height="6.98" transform="translate(706.823 335.617)"/></g></g></svg>