<svg xmlns="http://www.w3.org/2000/svg" width="84" height="84" viewBox="0 0 84 84"><defs><style>.a{fill:#fff;}.b{fill:#f24c27;}.c{fill:#ebebeb;}.d{fill:#95a5a5;}.e{fill:#7f8c8d;}.f{fill:#f29c1f;}.g{fill:#f0c419;}</style></defs><g transform="translate(-179 -4166)"><circle class="a" cx="42" cy="42" r="42" transform="translate(179 4166)"/><g transform="translate(-269.233 3868.319)"><g transform="translate(474.265 360.319)"><path d="M480.667,471.3h3.64v4.55a.91.91,0,0,1-.91.91h-1.82a.91.91,0,0,1-.91-.91V471.3Z" transform="translate(-480.667 -471.299)"/><path d="M578.082,471.3h3.64v4.55a.91.91,0,0,1-.91.91h-1.82a.91.91,0,0,1-.91-.91V471.3Z" transform="translate(-548.963 -471.299)"/></g><path class="b" d="M473.355,313h34.579a1.82,1.82,0,0,1,1.82,1.82v45.5a1.82,1.82,0,0,1-1.82,1.82H473.355a1.82,1.82,0,0,1-1.82-1.82v-45.5A1.82,1.82,0,0,1,473.355,313Z" transform="translate(0 0)"/><g transform="translate(471.535 313)"><path class="c" d="M509.754,314.82v28.209H471.535V314.82a1.825,1.825,0,0,1,1.82-1.82h34.579A1.825,1.825,0,0,1,509.754,314.82Z" transform="translate(-471.535 -313)"/><path class="c" d="M486.756,445.375l1.609-12.07a1.82,1.82,0,0,1,1.8-1.579h22.293a1.82,1.82,0,0,1,1.8,1.579l1.609,12.07" transform="translate(-482.206 -396.236)"/></g><circle class="d" cx="2.73" cy="2.73" r="2.73" transform="translate(481.545 353.039)"/><path class="e" d="M512.019,444.5a.91.91,0,0,1-.91-.91v-1.82a.91.91,0,1,1,1.82,0v1.82A.91.91,0,0,1,512.019,444.5Z" transform="translate(-27.745 -89.638)"/><circle class="d" cx="2.73" cy="2.73" r="2.73" transform="translate(494.284 353.039)"/><path class="e" d="M554.638,444.5a.91.91,0,0,1-.91-.91v-1.82a.91.91,0,1,1,1.82,0v1.82A.91.91,0,0,1,554.638,444.5Z" transform="translate(-57.624 -89.638)"/><path class="f" d="M520.516,334.31s-6.37,7.981-6.37,11.4a6.383,6.383,0,1,0,12.74,0C526.886,342.291,520.516,334.31,520.516,334.31Z" transform="translate(-29.872 -14.94)"/><path class="g" d="M529.06,373.852c-1.505,0-2.729-1.541-2.729-3.435.078-.875,1.2-3.145,2.727-5.665,1.532,2.528,2.654,4.81,2.732,5.714C531.79,372.311,530.565,373.852,529.06,373.852Z" transform="translate(-38.416 -36.282)"/></g></g></svg>