<svg xmlns="http://www.w3.org/2000/svg" width="84" height="84" viewBox="0 0 84 84"><defs><style>.a{fill:#fff;}.b{fill:#f24c27;}.c{fill:#ccc;}</style></defs><g transform="translate(-179 -4839)"><circle class="a" cx="42" cy="42" r="42" transform="translate(179 4839)"/><g transform="translate(-10.355 4523.173)"><g transform="translate(207.355 333.827)"><path class="b" d="M261.386,377.114l-11.792-3.775a4.417,4.417,0,0,0-.2-1.015c.5-.168,1.011-.35,1.53-.545,4.691-1.769,7.395-3.748,8.035-5.881a4.124,4.124,0,0,0-1.348-4.183,31.068,31.068,0,0,0-3.441-2.74.822.822,0,0,0-1.136.2l-7.289,10.124a4.473,4.473,0,0,0-.573-.038c-.134,0-.266.007-.4.019-.032-3.727-.494-8.476-2.446-10.63a3.593,3.593,0,0,0-2.746-1.261h0a5.4,5.4,0,0,0-2.361.62,27.459,27.459,0,0,0-3.308,2.157c-.206.152-.339.253-.36.269a.823.823,0,0,0-.165,1.14l7.67,10.462a4.444,4.444,0,0,0-.205.645,28.909,28.909,0,0,0-8.237-1.63c-2.037,0-3.516.514-4.395,1.529a4.421,4.421,0,0,0-.831,3.674,31.1,31.1,0,0,0,1.174,4.238.82.82,0,0,0,1.033.51l12.487-4.117a4.5,4.5,0,0,0,.44.376c-.433.593-.883,1.235-1.325,1.907-2.756,4.189-3.78,7.379-3.044,9.48a4.125,4.125,0,0,0,3.55,2.592,24.858,24.858,0,0,0,3.593.2c.48,0,.8-.007.8-.007a.822.822,0,0,0,.8-.825l-.055-12.8a4.433,4.433,0,0,0,.7-.364c.364.5.751,1.007,1.162,1.523,3.106,3.892,5.8,5.866,8.022,5.866,1.045,0,2.526-.447,3.647-2.576a31.138,31.138,0,0,0,1.543-4.118A.822.822,0,0,0,261.386,377.114Zm-16.215-1.142a2.277,2.277,0,1,1,2.277-2.277A2.277,2.277,0,0,1,245.171,375.972Z" transform="translate(-220.955 -349.877)"/><path class="c" d="M254.454,333.827h-46.2a.9.9,0,0,0-.9.9v46.2a.9.9,0,0,0,.9.9h46.2a.9.9,0,0,0,.9-.9v-46.2A.9.9,0,0,0,254.454,333.827Zm-44.891,3.684a1.476,1.476,0,1,1,1.476,1.476A1.476,1.476,0,0,1,209.563,337.511Zm21.792,39.6a19.284,19.284,0,1,1,19.284-19.284A19.284,19.284,0,0,1,231.355,377.111Zm20.316,2.509a1.476,1.476,0,1,1,1.476-1.476A1.476,1.476,0,0,1,251.672,379.619Z" transform="translate(-207.355 -333.827)"/></g></g></g></svg>