<svg xmlns="http://www.w3.org/2000/svg" width="84" height="84" viewBox="0 0 84 84"><defs><style>.a{fill:#fff;}.b{fill:#89bce2;}.c{fill:#95a5a5;}</style></defs><g transform="translate(-552 -3857)"><circle class="a" cx="42" cy="42" r="42" transform="translate(552 3857)"/><g transform="translate(-357.018 3554.522)"><path class="b" d="M977.994,376.169h12.817v8.359H977.994Z" transform="translate(-32.402 -36.085)"/><path class="b" d="M1027.472,327.671v14.105a4.184,4.184,0,0,1-4.179,4.18h-1.881v8.359h1.881a12.553,12.553,0,0,0,12.539-12.539V327.671Z" transform="translate(-59.45 -5.872)"/><path class="b" d="M944.742,376.169h-1.881a12.553,12.553,0,0,0-12.539,12.539v14.105h8.359V388.708a4.184,4.184,0,0,1,4.179-4.18h1.881Z" transform="translate(-2.704 -36.085)"/><g transform="translate(925.983 318.246)"><path class="c" d="M1033.145,318.246h11.633V321.8h-11.633Z" transform="translate(-992.743 -318.246)"/><path class="c" d="M937.616,450.391H925.983v-3.553h11.633Z" transform="translate(-925.983 -398.356)"/><path class="c" d="M968.569,382.619v-14.21h3.553v14.21Z" transform="translate(-952.513 -349.497)"/><path class="c" d="M1011.989,382.619v-14.21h3.553v14.21Z" transform="translate(-979.563 -349.497)"/></g></g></g></svg>