<svg xmlns="http://www.w3.org/2000/svg" width="84" height="84" viewBox="0 0 84 84"><defs><style>.a{fill:#fff;}.b{fill:#3a83b9;}.c{fill:#f24c27;}</style></defs><g transform="translate(-179 -3548)"><circle class="a" cx="42" cy="42" r="42" transform="translate(179 3548)"/><g transform="translate(191.591 3560.353)"><g transform="translate(13.647 22.104)"><path class="b" d="M396.758,164.817h-15.93a11.028,11.028,0,0,1,1.662-4.72,23.066,23.066,0,0,1,5.208-5.219,15.861,15.861,0,0,0,2.985-2.8,3.256,3.256,0,0,0,.652-1.816,2.3,2.3,0,0,0-3.93-1.566,4.311,4.311,0,0,0-.867,2.4l-5.319-.457a9.4,9.4,0,0,1,1.147-3.722,5.411,5.411,0,0,1,2.353-2.051,10.082,10.082,0,0,1,4.2-.714,11.214,11.214,0,0,1,4.361.679,5.384,5.384,0,0,1,2.451,2.086,5.762,5.762,0,0,1,.893,3.154,6.753,6.753,0,0,1-1.023,3.548,14.446,14.446,0,0,1-3.722,3.715q-1.6,1.178-2.145,1.649t-1.271,1.233h8.291Z" transform="translate(-380.829 -144.15)"/><path class="b" d="M440.481,161.019h-9.673v-4.644l9.673-12.225h4.628v12.489h2.4v4.38h-2.4v3.8h-4.628Zm0-4.38v-6.395l-5.111,6.395Z" transform="translate(-415.827 -144.15)"/></g><g transform="translate(25.947 8.911)"><path class="b" d="M431.515,102.461,430.5,101.45l1.239-1.24a1.91,1.91,0,0,0-1.886.514l-.543.543a1.024,1.024,0,0,0-.3.674l-.062,1.3a1.619,1.619,0,0,1-.48,1.065l-4.865,4.508,0,0a1.142,1.142,0,1,0,1.646,1.576,1.339,1.339,0,0,0,.211-.272l3.869-4.343a4.143,4.143,0,0,1,1.568-.986l1.619-.473a.488.488,0,0,0,.283-.259h0a.414.414,0,0,0-.072-.466l-.432-.433a1.9,1.9,0,0,0,.485-1.973ZM424.853,110a.574.574,0,1,1,.038-.847A.6.6,0,0,1,424.853,110Zm6.6-6.33-.553.553-.942-.942.553-.553Z" transform="translate(-422.837 -100.137)"/><g transform="translate(0 0.469)"><path class="b" d="M441.193,122.426l-3.547-3.547,1.4-1.4,3.547,3.547a.987.987,0,0,1,0,1.4h0A.987.987,0,0,1,441.193,122.426Z" transform="translate(-432.916 -112.752)"/><path class="b" d="M427.377,106.767l-3.23-3.23-.228-.729-1.505-1.106-.548.548,1.106,1.505.729.228,3.23,3.23Z" transform="translate(-421.865 -101.701)"/></g></g><g transform="translate(16.365 46.812)"><path class="c" d="M389.9,226.583" transform="translate(-389.896 -226.583)"/></g><g transform="translate(0 0)"><path class="c" d="M449.148,132.106l15.715,2.022-1.789-4.284,1.084-.91c.429-.348.828-.743,1.271-1.173s.907-.909,1.383-1.437a31,31,0,0,0,2.909-3.763,32.181,32.181,0,0,0,2.621-4.933,30.537,30.537,0,0,0,1.779-5.918,28.561,28.561,0,0,0,.526-6.516l-.007-.416,0-.1,0-.143,0-.048-.019-.194-.075-.777q-.076-.779-.152-1.562l-.308-1.7a12.926,12.926,0,0,0-.371-1.663l-.455-1.608c-.147-.535-.381-1.044-.568-1.563a25.949,25.949,0,0,0-1.344-3,14.069,14.069,0,0,0-.8-1.411c-.282-.457-.545-.922-.837-1.362l-.93-1.274-.459-.627-.5-.585-1-1.144c-.329-.378-.71-.7-1.056-1.048s-.692-.686-1.057-.994l-1.1-.89a27.7,27.7,0,0,0-4.362-2.838,8.46,8.46,0,0,0-1.052-.528l-1.027-.456a16.32,16.32,0,0,0-1.931-.736,27.266,27.266,0,0,0-3.22-.9c-.9-.205-1.629-.264-2.113-.352l-.747-.112.733.187c.474.137,1.185.267,2.052.56A26.72,26.72,0,0,1,455,79.1a15.665,15.665,0,0,1,1.8.9l.944.539c.039.021.077.046.115.067l-.578.856.549.37.591-.877c.094.064.188.125.281.192a26.381,26.381,0,0,1,3.868,3.112l.947.937c.312.323.591.685.893,1.03s.608.684.876,1.064l-1.456.911.351.561,1.488-.931.439.619.41.583.363.621.732,1.248c.226.429.421.878.634,1.317a12.188,12.188,0,0,1,.59,1.346,24.222,24.222,0,0,1,.9,2.713l-2.324.64.176.638,2.323-.64a7.985,7.985,0,0,1,.215.894l.257,1.461a10.265,10.265,0,0,1,.172,1.437l.122,1.411q0,.785-.006,1.566l0,.781v.243c0,.028-.005-.157,0-.068l0,.022-.008.09-.032.36c-.023.354-.062.7-.1,1.054l-3.011-.516-.112.652,3.043.522a24.372,24.372,0,0,1-.83,3.792,25.608,25.608,0,0,1-1.98,4.775c-.075.134-.153.261-.23.393l-3.287-1.757-.312.584,3.265,1.745a25.59,25.59,0,0,1-1.989,2.847A25.046,25.046,0,0,1,462.43,122c-.423.383-.82.736-1.217,1.03-.268.211-.514.4-.748.573l-1.709-4.093" transform="translate(-415.023 -75.132)"/><path class="c" d="M358.031,126.633a26.83,26.83,0,0,1-3.063-1.2,15.758,15.758,0,0,1-1.8-.9l-.945-.539c-.106-.056-.21-.121-.314-.184l.585-.868-.549-.37-.59.875c-.03-.021-.061-.04-.091-.062a26.4,26.4,0,0,1-3.868-3.113l-.947-.937c-.312-.323-.591-.685-.893-1.03s-.613-.688-.882-1.071l-.116-.164,1.387-.867-.351-.561-1.419.888-.317-.447-.41-.583-.363-.621-.732-1.248c-.226-.429-.421-.878-.634-1.317a12.181,12.181,0,0,1-.59-1.346,23.076,23.076,0,0,1-.93-2.809c-.006-.024-.014-.048-.02-.072l2.179-.6-.176-.638-2.178.6a6.741,6.741,0,0,1-.169-.727l-.257-1.461a10.255,10.255,0,0,1-.172-1.437l-.122-1.411q0-.785.006-1.566l0-.781V99.82c0-.028.005.157,0,.068l0-.022.008-.09.032-.36c.025-.386.066-.767.11-1.147l2.811.482.112-.653-2.838-.486a24.338,24.338,0,0,1,.816-3.7,25.591,25.591,0,0,1,1.98-4.775c.079-.141.161-.274.241-.412l3.085,1.649.312-.584-3.062-1.637a25.515,25.515,0,0,1,1.977-2.827,24.989,24.989,0,0,1,2.649-2.786c.423-.383.821-.736,1.217-1.03.268-.211.514-.4.748-.573l1.709,4.093,9.608-12.6L345.1,70.406l1.789,4.284-1.084.91c-.429.348-.828.743-1.271,1.173s-.907.909-1.383,1.437a30.94,30.94,0,0,0-2.909,3.763,32.134,32.134,0,0,0-2.621,4.933,30.529,30.529,0,0,0-1.779,5.919,28.56,28.56,0,0,0-.526,6.516l.007.415,0,.1,0,.142,0,.049.019.194.075.777q.076.779.152,1.562l.308,1.7a12.932,12.932,0,0,0,.371,1.663l.455,1.608c.147.535.381,1.044.568,1.563a25.959,25.959,0,0,0,1.344,3,14.1,14.1,0,0,0,.8,1.411c.282.457.545.921.837,1.362l.93,1.274.46.627.5.585,1,1.144c.328.378.71.7,1.056,1.048s.692.686,1.057.994l1.1.89a27.732,27.732,0,0,0,4.362,2.839,8.554,8.554,0,0,0,1.052.528l1.027.456a16.378,16.378,0,0,0,1.931.736,27.318,27.318,0,0,0,3.22.9c.9.205,1.629.264,2.113.352l.747.112-.733-.187C359.61,127.056,358.9,126.925,358.031,126.633Z" transform="translate(-335.299 -70.406)"/></g></g></g></svg>