<svg xmlns="http://www.w3.org/2000/svg" width="72.422" height="71.638" viewBox="0 0 72.422 71.638"><defs><style>.a{fill:#3a83b9;}.b{fill:#f24c27;}</style></defs><g transform="translate(-335.299 -70.406)"><g transform="translate(351.871 97.246)"><path class="a" d="M400.172,169.245H380.829a13.391,13.391,0,0,1,2.018-5.731,28.01,28.01,0,0,1,6.324-6.337,19.259,19.259,0,0,0,3.624-3.4,3.954,3.954,0,0,0,.792-2.2,2.792,2.792,0,0,0-4.772-1.9,5.234,5.234,0,0,0-1.053,2.912l-6.458-.555a11.414,11.414,0,0,1,1.393-4.519,6.571,6.571,0,0,1,2.857-2.491,12.243,12.243,0,0,1,5.1-.867,13.616,13.616,0,0,1,5.295.825,6.537,6.537,0,0,1,2.976,2.533,7,7,0,0,1,1.085,3.829,8.2,8.2,0,0,1-1.243,4.309,17.542,17.542,0,0,1-4.519,4.511q-1.947,1.43-2.6,2t-1.543,1.5h10.067Z" transform="translate(-380.829 -144.15)"/><path class="a" d="M442.554,164.633H430.808v-5.639l11.746-14.845h5.62v15.165h2.912v5.319h-2.912v4.612h-5.62Zm0-5.319v-7.765l-6.206,7.765Z" transform="translate(-412.617 -144.15)"/></g><g transform="translate(366.806 81.227)"><path class="a" d="M433.285,102.959l-1.227-1.227,1.505-1.505a2.319,2.319,0,0,0-2.29.625l-.659.659a1.243,1.243,0,0,0-.369.818l-.076,1.582a1.966,1.966,0,0,1-.583,1.293l-5.908,5.474.005.005a1.387,1.387,0,1,0,2,1.914,1.626,1.626,0,0,0,.256-.331l4.7-5.273a5.031,5.031,0,0,1,1.9-1.2l1.965-.574a.593.593,0,0,0,.343-.314h0a.5.5,0,0,0-.087-.566l-.525-.525a2.305,2.305,0,0,0,.589-2.4Zm-8.09,9.15a.7.7,0,1,1,.046-1.028A.729.729,0,0,1,425.2,112.109Zm8.009-7.686-.671.671-1.144-1.144.671-.671Z" transform="translate(-422.748 -100.137)"/><g transform="translate(0 0.569)"><path class="a" d="M441.954,123.485l-4.308-4.308,1.7-1.7,4.308,4.308a1.2,1.2,0,0,1,0,1.7h0A1.2,1.2,0,0,1,441.954,123.485Z" transform="translate(-431.902 -111.738)"/><path class="a" d="M428.559,107.852l-3.922-3.922-.277-.885-1.828-1.343-.666.666,1.343,1.828.885.277,3.922,3.922Z" transform="translate(-421.865 -101.701)"/></g></g><g transform="translate(355.171 127.249)"><path class="b" d="M389.9,226.583" transform="translate(-389.896 -226.583)"/></g><g transform="translate(335.299 70.406)"><path class="b" d="M449.148,143.881l19.082,2.455-2.173-5.2,1.317-1.1c.521-.423,1.006-.9,1.544-1.424s1.1-1.1,1.679-1.745a37.643,37.643,0,0,0,3.532-4.569,39.076,39.076,0,0,0,3.182-5.99,37.079,37.079,0,0,0,2.16-7.187,34.683,34.683,0,0,0,.639-7.912l-.008-.5,0-.126,0-.173-.005-.059-.023-.235-.091-.943q-.092-.946-.185-1.9l-.373-2.069a15.7,15.7,0,0,0-.451-2.019l-.553-1.952c-.178-.65-.463-1.268-.689-1.9a31.514,31.514,0,0,0-1.632-3.643,17.091,17.091,0,0,0-.966-1.713c-.342-.555-.661-1.119-1.017-1.654l-1.129-1.547-.558-.761-.613-.71L470.6,87.908c-.4-.459-.862-.852-1.282-1.273s-.84-.833-1.283-1.207l-1.336-1.08a33.63,33.63,0,0,0-5.3-3.446,10.276,10.276,0,0,0-1.278-.642l-1.247-.554a19.817,19.817,0,0,0-2.345-.894,33.111,33.111,0,0,0-3.91-1.093c-1.094-.249-1.978-.321-2.566-.428l-.907-.136.89.227c.575.166,1.439.325,2.492.68a32.447,32.447,0,0,1,3.719,1.457,19.02,19.02,0,0,1,2.185,1.1l1.147.655c.047.025.093.056.14.082l-.7,1.04.667.45.718-1.065c.114.077.228.151.341.234a32.034,32.034,0,0,1,4.7,3.779l1.15,1.138c.379.392.718.832,1.084,1.251.349.43.738.831,1.064,1.292l-1.767,1.106.426.681,1.807-1.13.533.751.5.708.44.754.889,1.516c.274.521.511,1.066.77,1.6a14.8,14.8,0,0,1,.716,1.635,29.416,29.416,0,0,1,1.1,3.295l-2.823.777.214.775,2.821-.777a9.7,9.7,0,0,1,.262,1.086l.312,1.774a12.461,12.461,0,0,1,.209,1.744l.148,1.713q0,.953-.007,1.9l0,.948v.3c0,.034-.006-.19,0-.082l0,.027-.01.11-.039.437c-.028.43-.075.855-.122,1.279l-3.656-.626-.136.792,3.695.633A29.594,29.594,0,0,1,474,117.8a31.092,31.092,0,0,1-2.4,5.8c-.091.163-.186.317-.279.477l-3.991-2.134-.379.709,3.965,2.119a31.075,31.075,0,0,1-2.415,3.457,30.415,30.415,0,0,1-3.217,3.383c-.514.465-1,.894-1.478,1.251-.326.257-.624.488-.908.7l-2.076-4.97" transform="translate(-407.711 -74.699)"/><path class="b" d="M362.9,138.682a32.578,32.578,0,0,1-3.719-1.457,19.134,19.134,0,0,1-2.185-1.1l-1.147-.655c-.129-.068-.255-.147-.381-.224l.711-1.054-.667-.45-.717,1.062c-.036-.026-.074-.049-.11-.075a32.057,32.057,0,0,1-4.7-3.78l-1.15-1.138c-.379-.392-.718-.832-1.084-1.251s-.744-.835-1.071-1.3l-.141-.2,1.684-1.053-.426-.681-1.723,1.078-.385-.543-.5-.708-.44-.754-.889-1.516c-.274-.521-.511-1.066-.77-1.6a14.8,14.8,0,0,1-.716-1.635,28.023,28.023,0,0,1-1.129-3.411c-.007-.029-.017-.058-.024-.088l2.646-.728-.214-.775-2.645.729a8.188,8.188,0,0,1-.206-.882l-.312-1.774a12.457,12.457,0,0,1-.209-1.744l-.148-1.713q0-.953.007-1.9l0-.948v-.3c0-.034.006.19,0,.082l0-.027.01-.11.039-.437c.031-.469.08-.932.133-1.393l3.413.585.136-.792-3.446-.59a29.552,29.552,0,0,1,.991-4.492,31.072,31.072,0,0,1,2.4-5.8c.1-.171.2-.333.292-.5l3.746,2,.379-.709-3.719-1.988a30.981,30.981,0,0,1,2.4-3.433,30.346,30.346,0,0,1,3.217-3.383c.514-.465,1-.894,1.478-1.251.326-.257.624-.488.908-.7l2.076,4.97,11.667-15.3L347.2,70.406l2.172,5.2-1.317,1.105c-.521.423-1.006.9-1.544,1.424s-1.1,1.1-1.679,1.745a37.57,37.57,0,0,0-3.532,4.569,39.02,39.02,0,0,0-3.183,5.99,37.071,37.071,0,0,0-2.16,7.187,34.679,34.679,0,0,0-.639,7.912l.008.5,0,.126,0,.173.005.059.023.235.091.943q.092.946.185,1.9l.373,2.069a15.7,15.7,0,0,0,.451,2.019l.553,1.952c.178.65.463,1.268.689,1.9a31.519,31.519,0,0,0,1.632,3.643,17.126,17.126,0,0,0,.966,1.713c.342.555.661,1.119,1.017,1.654l1.129,1.547.558.761.613.71,1.215,1.389c.4.459.862.852,1.282,1.273s.84.832,1.283,1.207l1.336,1.08a33.675,33.675,0,0,0,5.3,3.447,10.386,10.386,0,0,0,1.278.642l1.247.554a19.886,19.886,0,0,0,2.345.894,33.171,33.171,0,0,0,3.91,1.093c1.094.249,1.978.321,2.566.428l.907.136-.89-.227C364.819,139.195,363.955,139.036,362.9,138.682Z" transform="translate(-335.299 -70.406)"/></g></g></svg>