<svg xmlns="http://www.w3.org/2000/svg" width="82" height="115.597" viewBox="0 0 82 115.597"><defs><style>.a{fill:#048ac4;}.b{fill:#fff;}</style></defs><g transform="translate(-105 -3193.201)"><path class="a" d="M839.924,565.773c-.055-.082-1.014-1.537-2.579-3.914a.611.611,0,0,0-.082-.125c-8.041-12.238-31.6-48.054-31.6-48.054S771.58,565.495,771.187,566.1a41,41,0,1,0,68.737-.327Z" transform="translate(-659.662 2679.522)"/><g transform="translate(-566.719 2196.617)"><path class="b" d="M733.077,1049H692.362a.7.7,0,0,0-.7.7v28.079a.7.7,0,0,0,.7.7h12.676c.021.234.056.464.1.692l-3.85,4.589a.7.7,0,0,0,.375,1.134l4.238,1.012,1.733,4a.7.7,0,0,0,1.182.172l3.844-4.581h.125l3.844,4.581a.7.7,0,0,0,1.182-.172l1.733-4,4.238-1.012a.7.7,0,0,0,.375-1.134l-3.851-4.589c.041-.228.076-.458.1-.692h12.676a.7.7,0,0,0,.7-.7V1049.7A.7.7,0,0,0,733.077,1049Zm-28.781,7.722h16.848v1.4H704.3Zm4.172,31.59-1.422-3.279a.7.7,0,0,0-.481-.4l-3.475-.831,2.52-3c.013.031.031.059.044.09.091.211.19.411.3.609.045.083.092.164.14.245q.145.24.306.471c.075.108.154.211.234.316s.191.236.293.351.221.242.338.359c.086.086.176.17.267.252.076.07.144.144.223.21s.154.112.23.171c.034.027.064.057.1.083.063.048.13.089.194.135.1.07.2.146.305.211.2.128.4.244.614.351.08.041.161.078.243.116q.281.132.565.24c.055.02.109.044.163.062a7.539,7.539,0,0,0,.812.235l.008,0Zm4.158-3.663a6.666,6.666,0,1,1,6.666-6.666A6.666,6.666,0,0,1,712.626,1084.648Zm9.723-.852-3.475.83a.7.7,0,0,0-.481.4l-1.422,3.281-2.521-3h.006a7.428,7.428,0,0,0,.814-.236c.053-.018.1-.04.156-.059.2-.074.389-.156.578-.246.077-.036.154-.07.23-.109.21-.11.421-.228.623-.358.1-.062.191-.131.285-.2.07-.048.141-.093.211-.144.037-.028.07-.061.107-.09.07-.057.152-.106.223-.166s.144-.14.219-.206c.093-.084.184-.169.272-.257q.173-.173.336-.357c.1-.115.2-.232.293-.351.081-.1.159-.211.234-.316.108-.153.211-.31.305-.47.049-.081.1-.163.14-.247q.164-.3.3-.607c.012-.036.031-.065.044-.1Zm3.007-21.459H700.084v-1.4h25.272Z"/><path class="b" d="M754.332,1132.666a6.666,6.666,0,1,0-6.666,6.666A6.666,6.666,0,0,0,754.332,1132.666Zm-2.784,4.842c-.145.108-.275.2-.417.29l-.008,0c-.127.081-.257.155-.389.225l-.077.042c-.106.056-.21.105-.322.154-.056.025-.112.051-.168.074-.079.033-.159.062-.239.091s-.179.066-.27.094c-.048.016-.1.029-.147.043-.124.035-.249.07-.376.1l-.056.011a6.38,6.38,0,0,1-.977.129h-.009c-.111.005-.222.013-.333.013s-.223-.008-.334-.013h-.009a6.412,6.412,0,0,1-.975-.128l-.059-.012c-.125-.028-.249-.061-.371-.1-.051-.015-.1-.028-.154-.044-.088-.027-.174-.06-.261-.09s-.168-.061-.251-.1c-.051-.022-.1-.045-.152-.07-.115-.052-.229-.1-.341-.163l-.056-.031a6.342,6.342,0,0,1-.828-.529c-.146-.109-.281-.229-.413-.348a6.07,6.07,0,0,1-.449-.443c-.056-.06-.117-.118-.17-.18a6.126,6.126,0,0,1-.535-.732c-.024-.038-.044-.078-.07-.117a6.215,6.215,0,0,1-.393-.777c-.01-.024-.021-.048-.03-.071a6.317,6.317,0,0,1-.3-.946c0-.012-.01-.022-.013-.035a6.319,6.319,0,1,1,12.326.008c0,.012-.01.022-.013.034a6.35,6.35,0,0,1-.3.946c-.01.025-.021.049-.032.07a6.111,6.111,0,0,1-.392.772c-.023.039-.044.081-.07.12a6.224,6.224,0,0,1-.534.731c-.053.062-.112.118-.168.178q-.216.235-.454.447C751.825,1137.28,751.693,1137.4,751.547,1137.508Z" transform="translate(-35.04 -54.684)"/></g></g></svg>