<svg xmlns="http://www.w3.org/2000/svg" width="82" height="115.597" viewBox="0 0 82 115.597"><defs><style>.a{fill:#048ac4;}.b{fill:#fff;}</style></defs><g transform="translate(-105 -2829.201)"><path class="a" d="M839.924,565.773c-.055-.082-1.014-1.537-2.579-3.914a.611.611,0,0,0-.082-.125c-8.041-12.238-31.6-48.054-31.6-48.054S771.58,565.495,771.187,566.1a41,41,0,1,0,68.737-.327Z" transform="translate(-659.662 2315.522)"/><g transform="matrix(0.695, -0.719, 0.719, 0.695, -746.385, 2402.266)"><path class="b" d="M255.82,1066.526a2.728,2.728,0,0,0,3.858-3.858l-17.361-17.361a2.728,2.728,0,0,0-3.858,3.858Z" transform="translate(0 -55.471)"/><path class="b" d="M276.172,1028.288a4.1,4.1,0,0,0-5.787,0l-.5.5a12.326,12.326,0,0,0-10.052,2.457l17.24,17.24a12.324,12.324,0,0,0,2.457-10.052l.5-.5a4.1,4.1,0,0,0,0-5.787Z" transform="translate(-15.53 -43.274)"/><path class="b" d="M337.766,966.1l-16.989,16.989,3.858,3.858,16.989-16.99a2.728,2.728,0,1,0-3.858-3.858Z" transform="translate(-58.206)"/></g></g></svg>