<svg xmlns="http://www.w3.org/2000/svg" width="82" height="115.597" viewBox="0 0 82 115.597"><defs><style>.a{fill:#048ac4;}.b{fill:#fff;}</style></defs><g transform="translate(-625.5 -2997.374)"><path class="a" d="M839.924,565.773c-.055-.082-1.014-1.537-2.579-3.914a.611.611,0,0,0-.082-.125c-8.041-12.238-31.6-48.054-31.6-48.054S771.58,565.495,771.187,566.1a41,41,0,1,0,68.737-.327Z" transform="translate(-139.162 2483.695)"/><g transform="translate(183.795 2084.902)"><path class="b" d="M530.92,980.9v1.138a.92.92,0,0,0-.075.181,4.065,4.065,0,0,1-1.219,2.243c-.132.128-.272.249-.41.375a4.152,4.152,0,0,1-.875,5.8,4.2,4.2,0,0,1-.851,5.819,9.581,9.581,0,0,1,.575,1.293,4.115,4.115,0,0,1-4.031,5.33c-4.279.015-8.558.03-12.836-.013a23.091,23.091,0,0,1-3.586-.366,35.586,35.586,0,0,1-5.885-1.931c-.255-.09-.227-.257-.227-.444q0-10.339.009-20.677a.87.87,0,0,1,.21-.529c1.2-1.328,2.426-2.626,3.608-3.966,1.406-1.593,2.781-3.214,4.149-4.84a1.179,1.179,0,0,0,.231-.7c.022-1.435,0-2.871.016-4.306a1.756,1.756,0,0,1,1.856-1.868,6.992,6.992,0,0,1,6.331,3.984,8.906,8.906,0,0,1,.473,6.52c-.3,1.12-.642,2.229-.979,3.39h9.222a3.98,3.98,0,0,1,3.482,1.737A10.63,10.63,0,0,1,530.92,980.9Z" transform="translate(-26.992)"/><path class="b" d="M472.046,1031.383h-9.7v-25.7h9.7Z" transform="translate(0 -29.116)"/></g></g></svg>