<svg xmlns="http://www.w3.org/2000/svg" width="82" height="115.597" viewBox="0 0 82 115.597"><defs><style>.a{fill:#048ac4;}.b{fill:#fff;}</style></defs><g transform="translate(-625.5 -2609.374)"><path class="a" d="M839.924,565.773c-.055-.082-1.014-1.537-2.579-3.914a.611.611,0,0,0-.082-.125c-8.041-12.238-31.6-48.054-31.6-48.054S771.58,565.495,771.187,566.1a41,41,0,1,0,68.737-.327Z" transform="translate(-139.162 2095.695)"/><g transform="translate(346.526 1848.916)"><path class="b" d="M361.5,840.043h-1.268v13.939c0,2.17-1.263,4.133-3.8,4.133H331.612v.662c0,1.919,2.182,3.856,4.423,3.856H355.01l7.259,4.268-1.053-4.268h.279c2.239,0,3.25-1.932,3.25-3.856V843.352A2.987,2.987,0,0,0,361.5,840.043Z" transform="translate(-21.621 -15.901)"/><path class="b" d="M331.1,814.458H302.278c-2.536,0-5.455,2.253-5.455,4.425v17.47c0,2,2.473,3.444,4.845,3.667l-1.544,5.86,9.892-5.819H331.1c2.536,0,4.877-1.538,4.877-3.708v-17.47C335.981,816.711,333.639,814.458,331.1,814.458Zm-24.429,14.747a2.6,2.6,0,1,1,2.6-2.6A2.6,2.6,0,0,1,306.676,829.205Zm9.726,0a2.6,2.6,0,1,1,2.6-2.6A2.6,2.6,0,0,1,316.4,829.205Zm9.728,0a2.6,2.6,0,1,1,2.6-2.6A2.6,2.6,0,0,1,326.13,829.205Z"/></g></g></svg>