<svg xmlns="http://www.w3.org/2000/svg" width="82" height="115.597" viewBox="0 0 82 115.597"><defs><style>.a{fill:#048ac4;}.b{fill:#fff;}</style></defs><g transform="translate(-105 -2417.201)"><path class="a" d="M839.924,565.773c-.055-.082-1.014-1.537-2.579-3.914a.611.611,0,0,0-.082-.125c-8.041-12.238-31.6-48.054-31.6-48.054S771.58,565.495,771.187,566.1a41,41,0,1,0,68.737-.327Z" transform="translate(-659.662 1903.522)"/><path class="b" d="M1.307,1.73,8.62.042a1.7,1.7,0,0,1,1.934.977l3.375,7.875a1.683,1.683,0,0,1-.485,1.969L9.182,14.351A26.059,26.059,0,0,0,21.641,26.81l3.488-4.261a1.686,1.686,0,0,1,1.969-.485l7.875,3.375a1.708,1.708,0,0,1,.984,1.941L34.27,34.692A1.687,1.687,0,0,1,32.624,36,32.621,32.621,0,0,1,0,3.375,1.685,1.685,0,0,1,1.307,1.73Z" transform="translate(127.001 2470)"/></g></svg>